<?xml version="1.0" encoding="UTF-8" standalone="no"?>
<!-- Created with Inkscape (http://www.inkscape.org/) -->

<svg
   width="64"
   height="64"
   viewBox="0 0 16.933333 16.933333"
   version="1.1"
   id="svg1"
   inkscape:version="1.3.2 (091e20ef0f, 2023-11-25)"
   sodipodi:docname="gates.svg"
   inkscape:export-filename="../Code/aoc2024_vis/assets/gates.png"
   inkscape:export-xdpi="96"
   inkscape:export-ydpi="96"
   xmlns:inkscape="http://www.inkscape.org/namespaces/inkscape"
   xmlns:sodipodi="http://sodipodi.sourceforge.net/DTD/sodipodi-0.dtd"
   xmlns="http://www.w3.org/2000/svg"
   xmlns:svg="http://www.w3.org/2000/svg">
  <sodipodi:namedview
     id="namedview1"
     pagecolor="#ffffff"
     bordercolor="#000000"
     borderopacity="0.25"
     inkscape:showpageshadow="2"
     inkscape:pageopacity="0.0"
     inkscape:pagecheckerboard="0"
     inkscape:deskcolor="#d1d1d1"
     inkscape:document-units="mm"
     inkscape:zoom="8.1033961"
     inkscape:cx="4.3191768"
     inkscape:cy="38.008755"
     inkscape:window-width="1920"
     inkscape:window-height="1008"
     inkscape:window-x="0"
     inkscape:window-y="0"
     inkscape:window-maximized="1"
     inkscape:current-layer="layer1" />
  <defs
     id="defs1" />
  <g
     inkscape:label="Layer 1"
     inkscape:groupmode="layer"
     id="layer1">
    <rect
       style="fill:none;stroke:none;stroke-width:0.499999"
       id="rect1"
       width="16.933332"
       height="16.933332"
       x="0"
       y="0" />
    <path
       id="path2"
       style="fill:none;stroke:#000000;stroke-width:0.529167;stroke-dasharray:none"
       d="m 0.26458411,2.3964522 v 1.8479493 a 3.9576738,3.9576738 0 0 0 1.97869059,3.4276977 3.9576738,3.9576738 0 0 0 3.9573811,0 3.9576738,3.9576738 0 0 0 1.9792074,-3.4276977 V 2.3964522 Z" />
    <path
       style="fill:none;stroke:#000000;stroke-width:0.529167;stroke-dasharray:none"
       d="M 2.2434039,0.43883249 V 2.3964522 H 6.2010434 V 0.43883249"
       id="path3" />
    <path
       id="path2-5"
       style="fill:none;stroke:#000000;stroke-width:0.529167;stroke-dasharray:none"
       d="m 0.26458351,10.303783 c 0,4.203743 0.82832669,4.602206 3.95989599,6.365124 2.7803045,-1.71378 3.9553836,-1.924149 3.9553836,-6.379284 0,0 -1.3204294,0.573495 -3.9576399,0.573495 -2.6372105,0 -3.95763969,-0.559335 -3.95763969,-0.559335 z"
       sodipodi:nodetypes="ccczc" />
    <path
       style="fill:none;stroke:#000000;stroke-width:0.529167;stroke-dasharray:none"
       d="M 2.2434033,8.9054978 2.235457,10.74622 4.2222232,10.863118 6.2296818,10.740595 6.2010431,8.9054978"
       id="path3-3"
       sodipodi:nodetypes="ccccc" />
    <path
       id="path2-5-9"
       style="fill:none;stroke:#000000;stroke-width:0.529167;stroke-dasharray:none"
       d="m 8.7534697,10.261153 c 0,4.203743 0.8283267,4.602206 3.9598963,6.365124 2.780304,-1.71378 3.955383,-1.924149 3.955383,-6.379284 0,0 -1.320429,0.573495 -3.957639,0.573495 -2.637211,0 -3.9576403,-0.559335 -3.9576403,-0.559335 z M 16.680454,9.4412777 c 0,0 -1.320429,0.5734953 -3.957639,0.5734953 -2.637211,0 -3.9576395,-0.5593353 -3.9576395,-0.5593353"
       sodipodi:nodetypes="ccczccsc" />
    <path
       style="fill:none;stroke:#000000;stroke-width:0.529167;stroke-dasharray:none"
       d="m 10.73229,8.8628673 -0.008,1.8407227 1.986766,0.116898 2.007458,-0.122523 -0.02864,-1.8350977"
       id="path3-3-1"
       sodipodi:nodetypes="ccccc" />
  </g>
</svg>
